<?xml version="1.0" encoding="UTF-8" standalone="no"?>
<!-- Created with Inkscape (http://www.inkscape.org/) -->

<svg
   width="200"
   height="200"
   viewBox="0 0 52.916668 52.916666"
   version="1.1"
   id="svg8"
   inkscape:version="1.4.2 (f4327f4, 2025-05-13)"
   sodipodi:docname="functionalist.svg"
   xmlns:inkscape="http://www.inkscape.org/namespaces/inkscape"
   xmlns:sodipodi="http://sodipodi.sourceforge.net/DTD/sodipodi-0.dtd"
   xmlns="http://www.w3.org/2000/svg"
   xmlns:svg="http://www.w3.org/2000/svg"
   xmlns:rdf="http://www.w3.org/1999/02/22-rdf-syntax-ns#"
   xmlns:cc="http://creativecommons.org/ns#"
   xmlns:dc="http://purl.org/dc/elements/1.1/">
  <defs
     id="defs2">
    <rect
       x="6"
       y="144.5"
       width="187.5"
       height="48"
       id="rect9" />
    <rect
       x="7"
       y="143.5"
       width="185"
       height="49.5"
       id="rect8" />
    <rect
       x="10"
       y="144.5"
       width="191.5"
       height="59.5"
       id="rect7" />
    <rect
       x="12.5"
       y="146"
       width="176.5"
       height="43"
       id="rect6" />
    <rect
       x="10"
       y="146"
       width="178"
       height="43"
       id="rect5" />
    <rect
       x="9.899495"
       y="144.24978"
       width="181.01934"
       height="46.669048"
       id="rect4" />
    <rect
       x="8.8388348"
       y="143.89623"
       width="182.08"
       height="47.376154"
       id="rect3" />
    <rect
       x="9.899495"
       y="143.89623"
       width="181.01934"
       height="48.083261"
       id="rect2" />
    <rect
       x="10.25"
       y="144"
       width="180.5"
       height="46.25"
       id="rect1" />
    <inkscape:path-effect
       effect="envelope"
       id="path-effect4658"
       is_visible="true"
       yy="true"
       xx="true"
       bendpath1="m -199.08406,108.42369 h 7.0057"
       bendpath2="m -192.07836,108.42369 v 6.75242"
       bendpath3="m -199.08406,115.17611 h 7.0057"
       bendpath4="m -199.08406,108.42369 v 6.75242" />
    <inkscape:path-effect
       effect="bend_path"
       id="path-effect4656"
       is_visible="true"
       bendpath="m -192.00142,114.60623 c 2.12577,-0.53066 4.48261,0.85111 7.0057,0"
       prop_scale="1"
       scale_y_rel="false"
       vertical="false"
       bendpath-nodetypes="cc" />
    <inkscape:path-effect
       effect="bounding_box"
       id="path-effect4654"
       is_visible="true"
       linkedpath=""
       visualbounds="false" />
  </defs>
  <sodipodi:namedview
     id="base"
     pagecolor="#ffffff"
     bordercolor="#666666"
     borderopacity="1.0"
     inkscape:pageopacity="0.0"
     inkscape:pageshadow="2"
     inkscape:zoom="2"
     inkscape:cx="290.25"
     inkscape:cy="200.25"
     inkscape:document-units="px"
     inkscape:current-layer="layer1"
     showgrid="false"
     fit-margin-top="0"
     fit-margin-left="0"
     fit-margin-right="0"
     fit-margin-bottom="0"
     inkscape:window-width="2400"
     inkscape:window-height="1529"
     inkscape:window-x="-8"
     inkscape:window-y="-8"
     inkscape:window-maximized="1"
     showguides="false"
     inkscape:object-nodes="false"
     units="px"
     inkscape:showpageshadow="2"
     inkscape:pagecheckerboard="0"
     inkscape:deskcolor="#d1d1d1" />
  <metadata
     id="metadata5">
    <rdf:RDF>
      <cc:Work
         rdf:about="">
        <dc:format>image/svg+xml</dc:format>
        <dc:type
           rdf:resource="http://purl.org/dc/dcmitype/StillImage" />
      </cc:Work>
    </rdf:RDF>
  </metadata>
  <g
     inkscape:label="Layer 1"
     inkscape:groupmode="layer"
     id="layer1"
     transform="translate(39.608708,-92.411388)">
    <rect
       y="92.411385"
       x="-39.608707"
       height="52.916668"
       width="52.916668"
       id="rect4485"
       style="fill:#222222;fill-opacity:1;fill-rule:nonzero;stroke:none;stroke-width:0.5;stroke-linecap:butt;stroke-linejoin:round;stroke-miterlimit:4;stroke-dasharray:none;stroke-dashoffset:0;stroke-opacity:0.909449;paint-order:normal"
       rx="3.96875"
       ry="3.96875" />
    <rect
       style="fill:#ff3d2e;fill-opacity:1;fill-rule:nonzero;stroke:none;stroke-width:0.5;stroke-linecap:butt;stroke-linejoin:round;stroke-miterlimit:4;stroke-dasharray:none;stroke-dashoffset:0;stroke-opacity:0.909449;paint-order:normal"
       id="rect4487"
       width="47.625"
       height="47.625"
       x="-36.962875"
       y="95.05722"
       rx="2.6458333"
       ry="2.6458333" />
    <path
       style="fill:#222222;fill-opacity:1;fill-rule:nonzero;stroke:none;stroke-width:0.5;stroke-linecap:butt;stroke-linejoin:round;stroke-miterlimit:4;stroke-dasharray:none;stroke-dashoffset:0;stroke-opacity:0.909449;paint-order:normal"
       d="m -38.153499,129.45306 v 8.33438 c 0,3.07816 2.478088,5.55624 5.55625,5.55624 H 6.2965 c 3.078162,0 5.55625,-2.47808 5.55625,-5.55624 v -8.33438 z"
       id="rect5205-3"
       inkscape:connector-curvature="0" />
    <g
       id="g7"
       transform="matrix(0.11578572,0,0,0.11578572,-36.810251,96.762538)">
	
	
	
	
	
	
	
</g>
    <text
       xml:space="preserve"
       transform="matrix(0.26458333,0,0,0.26458333,-37.227458,94.528055)"
       id="text8"
       style="font-weight:bold;font-size:26.6667px;font-family:'Equity Caps A';-inkscape-font-specification:'Equity Caps A Bold';text-align:start;writing-mode:lr-tb;direction:ltr;white-space:pre;shape-inside:url(#rect9);fill:#ffffff;fill-opacity:1"><tspan
         x="6"
         y="167.67711"
         id="tspan1">FUNCTION</tspan></text>
    <g
       id="g3"
       transform="matrix(0.09973919,0,0,0.072351,-39.343826,95.32228)"
       style="fill:#242424;fill-opacity:1">
	<path
   class="st0"
   d="m 492.346,41.403 c -10.57,3.222 -18.868,9.015 -25.208,14.756 -4.793,4.326 -8.66,8.652 -12.12,12.437 -5.186,5.719 -9.459,10.068 -13.497,12.631 -2.029,1.311 -3.992,2.251 -6.296,2.955 -2.304,0.689 -5,1.148 -8.571,1.148 -3.63,0 -6.356,-0.482 -8.689,-1.186 -4.022,-1.252 -7.238,-3.296 -11.142,-6.785 -2.896,-2.593 -6,-5.978 -9.541,-9.86 -5.319,-5.786 -11.63,-12.852 -20.802,-18.83 -4.578,-2.964 -9.874,-5.571 -15.801,-7.349 -5.933,-1.792 -12.452,-2.756 -19.379,-2.748 -7.037,-0.008 -13.653,0.985 -19.653,2.83 -10.564,3.222 -18.868,9.015 -25.209,14.756 -4.793,4.326 -8.66,8.652 -12.127,12.437 -5.178,5.719 -9.452,10.068 -13.482,12.631 -2.03,1.311 -3.993,2.251 -6.297,2.955 -2.304,0.689 -4.993,1.148 -8.571,1.148 -3.63,0 -6.348,-0.482 -8.682,-1.186 -4.015,-1.252 -7.23,-3.296 -11.134,-6.778 -2.896,-2.593 -6,-5.978 -9.534,-9.868 -5.326,-5.778 -11.63,-12.852 -20.809,-18.83 -4.57,-2.964 -9.874,-5.571 -15.801,-7.349 -5.926,-1.792 -12.445,-2.756 -19.375,-2.748 -7.034,-0.008 -13.649,0.985 -19.649,2.83 -10.56,3.222 -18.864,9.015 -25.202,14.756 -4.789,4.326 -8.652,8.66 -12.115,12.437 -5.175,5.726 -9.453,10.068 -13.483,12.631 -2.03,1.311 -3.989,2.251 -6.289,2.955 -2.304,0.689 -4.993,1.148 -8.564,1.148 -3.63,0 -6.352,-0.482 -8.678,-1.186 C 72.627,82.889 69.409,80.845 65.504,77.363 62.615,74.77 59.515,71.385 55.974,67.495 50.651,61.717 44.344,54.643 35.173,48.665 30.598,45.701 25.298,43.094 19.369,41.316 13.441,39.528 6.926,38.565 0,38.573 v 37.41 c 3.63,0.007 6.348,0.481 8.678,1.185 4.023,1.259 7.237,3.297 11.142,6.778 2.892,2.6 5.993,5.985 9.53,9.867 5.323,5.779 11.63,12.853 20.805,18.831 4.57,2.963 9.867,5.57 15.801,7.356 5.93,1.785 12.445,2.748 19.371,2.74 7.034,0.008 13.645,-0.978 19.649,-2.837 10.564,-3.215 18.864,-9.008 25.206,-14.749 4.789,-4.327 8.652,-8.66 12.116,-12.438 5.17,-5.726 9.452,-10.067 13.482,-12.638 2.03,-1.304 3.986,-2.252 6.289,-2.948 2.3,-0.689 4.989,-1.141 8.56,-1.148 3.634,0.007 6.352,0.481 8.686,1.185 4.015,1.259 7.237,3.297 11.142,6.778 2.889,2.6 5.985,5.985 9.526,9.867 5.327,5.779 11.63,12.853 20.809,18.831 4.57,2.963 9.868,5.57 15.801,7.356 5.926,1.785 12.445,2.748 19.371,2.74 7.038,0.008 13.653,-0.978 19.653,-2.829 10.564,-3.222 18.869,-9.008 25.209,-14.756 4.793,-4.327 8.66,-8.653 12.119,-12.438 5.186,-5.719 9.46,-10.06 13.49,-12.63 2.029,-1.304 3.992,-2.252 6.296,-2.956 2.305,-0.689 4.993,-1.141 8.571,-1.148 3.63,0.007 6.348,0.481 8.682,1.185 4.022,1.259 7.244,3.297 11.149,6.778 2.888,2.6 5.992,5.985 9.534,9.874 5.319,5.771 11.63,12.846 20.809,18.824 4.57,2.963 9.874,5.57 15.801,7.356 5.934,1.785 12.452,2.748 19.379,2.74 7.037,0.008 13.645,-0.978 19.653,-2.829 10.564,-3.222 18.868,-9.008 25.209,-14.756 4.793,-4.327 8.66,-8.653 12.12,-12.431 5.186,-5.726 9.46,-10.068 13.497,-12.638 2.03,-1.304 3.993,-2.252 6.297,-2.948 2.304,-0.696 4.993,-1.148 8.571,-1.155 v -37.41 c -7.041,-0.007 -13.655,0.986 -19.657,2.831 z"
   id="path1"
   style="fill:#242424;fill-opacity:1" />

	<path
   class="st0"
   d="m 467.138,231.502 c -4.793,4.318 -8.66,8.652 -12.12,12.438 -5.186,5.719 -9.459,10.067 -13.497,12.63 -2.029,1.304 -3.992,2.252 -6.296,2.948 -2.304,0.696 -5,1.155 -8.571,1.155 -3.63,0 -6.356,-0.482 -8.689,-1.185 -4.022,-1.252 -7.238,-3.297 -11.142,-6.786 -2.896,-2.593 -6,-5.978 -9.541,-9.86 -5.319,-5.786 -11.63,-12.852 -20.802,-18.83 -4.578,-2.963 -9.874,-5.571 -15.801,-7.348 -5.933,-1.793 -12.452,-2.756 -19.379,-2.749 -7.037,-0.007 -13.653,0.985 -19.653,2.83 -10.564,3.222 -18.868,9.008 -25.209,14.756 -4.793,4.326 -8.66,8.652 -12.127,12.438 -5.178,5.719 -9.452,10.067 -13.482,12.63 -2.03,1.304 -3.993,2.252 -6.297,2.948 -2.304,0.696 -4.993,1.155 -8.571,1.155 -3.63,0 -6.348,-0.482 -8.682,-1.185 -4.015,-1.252 -7.23,-3.297 -11.134,-6.778 -2.896,-2.593 -6,-5.978 -9.534,-9.868 -5.326,-5.778 -11.63,-12.852 -20.809,-18.83 -4.57,-2.963 -9.874,-5.571 -15.801,-7.348 -5.926,-1.793 -12.445,-2.756 -19.375,-2.749 -7.034,-0.007 -13.649,0.985 -19.649,2.83 -10.56,3.222 -18.864,9.016 -25.202,14.756 -4.789,4.326 -8.652,8.66 -12.115,12.438 -5.175,5.726 -9.453,10.067 -13.483,12.63 -2.03,1.304 -3.989,2.252 -6.289,2.948 -2.304,0.696 -4.993,1.155 -8.564,1.155 -3.63,0 -6.352,-0.482 -8.678,-1.185 -4.019,-1.252 -7.237,-3.297 -11.142,-6.778 -2.889,-2.593 -5.989,-5.978 -9.53,-9.868 -5.323,-5.778 -11.63,-12.852 -20.801,-18.83 -4.575,-2.963 -9.875,-5.571 -15.804,-7.348 -5.931,-1.793 -12.445,-2.756 -19.372,-2.749 v 37.41 c 3.63,0.008 6.348,0.482 8.678,1.185 4.023,1.252 7.237,3.297 11.142,6.778 2.892,2.593 5.993,5.986 9.53,9.868 5.323,5.778 11.63,12.852 20.805,18.83 4.57,2.963 9.867,5.571 15.801,7.348 5.93,1.793 12.445,2.756 19.371,2.749 7.034,0.007 13.645,-0.985 19.649,-2.838 10.564,-3.215 18.864,-9.008 25.206,-14.749 4.789,-4.326 8.652,-8.66 12.116,-12.438 5.17,-5.726 9.452,-10.067 13.482,-12.638 2.03,-1.303 3.986,-2.251 6.289,-2.948 2.3,-0.69 4.989,-1.141 8.56,-1.148 3.634,0.008 6.352,0.482 8.686,1.185 4.015,1.252 7.237,3.297 11.142,6.778 2.889,2.593 5.985,5.986 9.526,9.868 5.327,5.778 11.63,12.852 20.809,18.83 4.57,2.963 9.868,5.571 15.801,7.348 5.926,1.793 12.445,2.756 19.371,2.749 7.038,0.007 13.653,-0.985 19.653,-2.83 10.564,-3.222 18.869,-9.008 25.209,-14.756 4.793,-4.326 8.66,-8.652 12.119,-12.438 5.186,-5.719 9.46,-10.06 13.49,-12.63 2.029,-1.304 3.992,-2.252 6.296,-2.955 2.305,-0.69 4.993,-1.141 8.571,-1.148 3.63,0.008 6.348,0.482 8.682,1.185 4.022,1.252 7.244,3.297 11.149,6.778 2.888,2.593 5.992,5.986 9.534,9.868 5.319,5.778 11.63,12.852 20.809,18.83 4.57,2.963 9.874,5.571 15.801,7.348 5.934,1.793 12.452,2.756 19.379,2.749 7.037,0.007 13.645,-0.985 19.653,-2.83 10.564,-3.222 18.868,-9.008 25.209,-14.756 4.793,-4.326 8.66,-8.652 12.12,-12.431 5.186,-5.726 9.46,-10.067 13.497,-12.638 2.03,-1.304 3.993,-2.252 6.297,-2.948 2.304,-0.696 4.993,-1.148 8.571,-1.155 v -37.41 c -7.038,-0.007 -13.652,0.985 -19.654,2.83 -10.57,3.225 -18.867,9.011 -25.208,14.759 z"
   id="path2"
   style="fill:#242424;fill-opacity:1" />

	<path
   class="st0"
   d="m 467.138,406.845 c -4.793,4.319 -8.66,8.653 -12.12,12.43 -5.186,5.726 -9.459,10.068 -13.497,12.638 -2.029,1.304 -3.992,2.252 -6.296,2.948 -2.304,0.696 -5,1.148 -8.571,1.155 -3.63,-0.007 -6.356,-0.481 -8.689,-1.185 -4.022,-1.259 -7.238,-3.297 -11.142,-6.785 -2.896,-2.593 -6,-5.978 -9.541,-9.868 -5.319,-5.778 -11.63,-12.846 -20.802,-18.824 -4.578,-2.963 -9.874,-5.57 -15.801,-7.356 -5.933,-1.785 -12.452,-2.748 -19.379,-2.74 -7.037,-0.008 -13.653,0.978 -19.653,2.829 -10.564,3.222 -18.868,9.008 -25.209,14.756 -4.793,4.327 -8.66,8.653 -12.127,12.43 -5.178,5.726 -9.452,10.068 -13.482,12.638 -2.03,1.304 -3.993,2.252 -6.297,2.948 -2.304,0.696 -4.993,1.148 -8.571,1.155 -3.63,-0.007 -6.348,-0.481 -8.682,-1.185 -4.015,-1.259 -7.23,-3.297 -11.134,-6.778 -2.896,-2.6 -6,-5.985 -9.534,-9.874 -5.326,-5.771 -11.63,-12.846 -20.809,-18.824 -4.57,-2.963 -9.874,-5.57 -15.801,-7.356 -5.926,-1.785 -12.445,-2.748 -19.375,-2.74 -7.034,-0.008 -13.649,0.978 -19.649,2.829 -10.56,3.222 -18.864,9.016 -25.202,14.756 -4.789,4.327 -8.652,8.66 -12.115,12.438 -5.175,5.726 -9.453,10.067 -13.483,12.63 -2.03,1.304 -3.989,2.252 -6.289,2.948 -2.304,0.696 -4.993,1.148 -8.564,1.155 -3.63,-0.007 -6.352,-0.481 -8.678,-1.185 -4.019,-1.259 -7.237,-3.297 -11.142,-6.778 -2.889,-2.6 -5.989,-5.985 -9.53,-9.867 -5.323,-5.779 -11.63,-12.853 -20.801,-18.831 -4.575,-2.963 -9.875,-5.57 -15.804,-7.356 -5.931,-1.785 -12.445,-2.748 -19.372,-2.74 v 37.409 c 3.63,0 6.348,0.482 8.678,1.186 4.023,1.252 7.237,3.296 11.142,6.778 2.892,2.593 5.993,5.978 9.53,9.868 5.323,5.778 11.63,12.852 20.805,18.83 4.57,2.964 9.867,5.571 15.801,7.349 5.93,1.792 12.445,2.756 19.371,2.748 7.034,0.008 13.645,-0.985 19.649,-2.837 10.564,-3.216 18.864,-9.008 25.206,-14.75 4.789,-4.326 8.652,-8.66 12.116,-12.438 5.17,-5.726 9.452,-10.068 13.482,-12.638 2.03,-1.304 3.986,-2.252 6.289,-2.948 2.3,-0.689 4.989,-1.148 8.56,-1.148 3.634,0 6.352,0.482 8.686,1.186 4.015,1.252 7.237,3.296 11.142,6.778 2.889,2.593 5.985,5.978 9.526,9.868 5.327,5.778 11.63,12.852 20.809,18.83 4.57,2.964 9.868,5.571 15.801,7.349 5.926,1.792 12.445,2.756 19.371,2.748 7.038,0.008 13.653,-0.985 19.653,-2.83 10.564,-3.222 18.869,-9.015 25.209,-14.756 4.793,-4.326 8.66,-8.652 12.119,-12.438 5.186,-5.719 9.46,-10.068 13.49,-12.631 2.029,-1.311 3.992,-2.251 6.296,-2.955 2.305,-0.689 4.993,-1.148 8.571,-1.148 3.63,0 6.348,0.482 8.682,1.186 4.022,1.252 7.244,3.296 11.149,6.778 2.888,2.593 5.992,5.978 9.534,9.868 5.319,5.778 11.63,12.852 20.809,18.83 4.57,2.964 9.874,5.571 15.801,7.349 5.934,1.792 12.452,2.756 19.379,2.748 7.037,0.008 13.645,-0.985 19.653,-2.83 10.564,-3.222 18.868,-9.015 25.209,-14.756 4.793,-4.326 8.66,-8.652 12.12,-12.438 5.186,-5.719 9.46,-10.068 13.497,-12.631 2.03,-1.311 3.993,-2.251 6.297,-2.948 2.304,-0.696 4.993,-1.156 8.571,-1.156 V 389.26 c -7.038,-0.008 -13.652,0.978 -19.654,2.829 -10.57,3.222 -18.867,9.008 -25.208,14.756 z"
   id="path3"
   style="fill:#242424;fill-opacity:1" />

</g>
  </g>
</svg>
