<?xml version="1.0" encoding="UTF-8" standalone="no"?>
<!-- Created with Inkscape (http://www.inkscape.org/) -->

<svg
   width="200"
   height="200"
   viewBox="0 0 52.916668 52.916666"
   version="1.1"
   id="svg8"
   inkscape:version="1.4.2 (f4327f4, 2025-05-13)"
   sodipodi:docname="non-positivist.svg"
   xmlns:inkscape="http://www.inkscape.org/namespaces/inkscape"
   xmlns:sodipodi="http://sodipodi.sourceforge.net/DTD/sodipodi-0.dtd"
   xmlns="http://www.w3.org/2000/svg"
   xmlns:svg="http://www.w3.org/2000/svg"
   xmlns:rdf="http://www.w3.org/1999/02/22-rdf-syntax-ns#"
   xmlns:cc="http://creativecommons.org/ns#"
   xmlns:dc="http://purl.org/dc/elements/1.1/">
  <defs
     id="defs2">
    <rect
       x="6.7175144"
       y="146.01755"
       width="187.73685"
       height="30.759146"
       id="rect5" />
    <rect
       x="7.0710678"
       y="143.54268"
       width="186.32264"
       height="49.497475"
       id="rect4" />
    <rect
       x="7.7781746"
       y="142.83557"
       width="182.43355"
       height="52.325902"
       id="rect3" />
    <rect
       x="9.899495"
       y="144.24978"
       width="178.19091"
       height="47.376154"
       id="rect2" />
    <rect
       x="13.435029"
       y="149.19953"
       width="173.94827"
       height="40.305087"
       id="rect1" />
    <inkscape:path-effect
       effect="envelope"
       id="path-effect4658"
       is_visible="true"
       yy="true"
       xx="true"
       bendpath1="m -199.08406,108.42369 h 7.0057"
       bendpath2="m -192.07836,108.42369 v 6.75242"
       bendpath3="m -199.08406,115.17611 h 7.0057"
       bendpath4="m -199.08406,108.42369 v 6.75242" />
    <inkscape:path-effect
       effect="bend_path"
       id="path-effect4656"
       is_visible="true"
       bendpath="m -192.00142,114.60623 c 2.12577,-0.53066 4.48261,0.85111 7.0057,0"
       prop_scale="1"
       scale_y_rel="false"
       vertical="false"
       bendpath-nodetypes="cc" />
    <inkscape:path-effect
       effect="bounding_box"
       id="path-effect4654"
       is_visible="true"
       linkedpath=""
       visualbounds="false" />
  </defs>
  <sodipodi:namedview
     id="base"
     pagecolor="#ffffff"
     bordercolor="#666666"
     borderopacity="1.0"
     inkscape:pageopacity="0.0"
     inkscape:pageshadow="2"
     inkscape:zoom="2"
     inkscape:cx="32.5"
     inkscape:cy="151.25"
     inkscape:document-units="px"
     inkscape:current-layer="g4561"
     showgrid="false"
     fit-margin-top="0"
     fit-margin-left="0"
     fit-margin-right="0"
     fit-margin-bottom="0"
     inkscape:window-width="2400"
     inkscape:window-height="1529"
     inkscape:window-x="-8"
     inkscape:window-y="-8"
     inkscape:window-maximized="1"
     showguides="false"
     inkscape:object-nodes="false"
     units="px"
     inkscape:showpageshadow="2"
     inkscape:pagecheckerboard="0"
     inkscape:deskcolor="#d1d1d1" />
  <metadata
     id="metadata5">
    <rdf:RDF>
      <cc:Work
         rdf:about="">
        <dc:format>image/svg+xml</dc:format>
        <dc:type
           rdf:resource="http://purl.org/dc/dcmitype/StillImage" />
      </cc:Work>
    </rdf:RDF>
  </metadata>
  <g
     inkscape:label="Layer 1"
     inkscape:groupmode="layer"
     id="layer1"
     transform="translate(39.608708,-92.411388)">
    <g
       style="stroke-width:0.5"
       id="g4561"
       transform="matrix(2,0,0,2,-39.608708,92.411388)">
      <rect
         y="-1.110223e-16"
         x="0"
         height="26.458334"
         width="26.458334"
         id="rect4485"
         style="opacity:1;fill:#222222;fill-opacity:1;fill-rule:nonzero;stroke:none;stroke-width:0.25;stroke-linecap:butt;stroke-linejoin:round;stroke-miterlimit:4;stroke-dasharray:none;stroke-dashoffset:0;stroke-opacity:0.90944878;paint-order:normal"
         rx="1.984375"
         ry="1.984375" />
      <rect
         style="opacity:1;fill:#2bd84c;fill-opacity:1;fill-rule:nonzero;stroke:none;stroke-width:0.25;stroke-linecap:butt;stroke-linejoin:round;stroke-miterlimit:4;stroke-dasharray:none;stroke-dashoffset:0;stroke-opacity:0.90944878;paint-order:normal"
         id="rect4487"
         width="23.8125"
         height="23.8125"
         x="1.322917"
         y="1.322917"
         rx="1.3229166"
         ry="1.3229166"
         inkscape:label="rect4487" />
      <path
         style="opacity:1;fill:#222222;fill-opacity:1;fill-rule:nonzero;stroke:none;stroke-width:0.24999999;stroke-linecap:butt;stroke-linejoin:round;stroke-miterlimit:4;stroke-dasharray:none;stroke-dashoffset:0;stroke-opacity:0.90944878;paint-order:normal"
         d="m 0.72760467,18.520836 v 4.167188 c 0,1.539081 1.23904383,2.778124 2.77812503,2.778124 H 22.952604 c 1.539081,0 2.778125,-1.239043 2.778125,-2.778124 v -4.167188 z"
         id="rect5205-3"
         inkscape:connector-curvature="0" />
      <text
         xml:space="preserve"
         transform="matrix(0.13229167,0,0,0.13229167,0.60803818,1.7773424)"
         id="text4"
         style="font-style:normal;font-variant:normal;font-weight:bold;font-stretch:normal;font-size:21.3333px;font-family:'Equity Caps A';-inkscape-font-specification:'Equity Caps A, Bold';font-variant-ligatures:normal;font-variant-caps:normal;font-variant-numeric:normal;font-variant-east-asian:normal;text-align:start;writing-mode:lr-tb;direction:ltr;white-space:pre;shape-inside:url(#rect5);fill:#ffffff;fill-opacity:1;stroke:none;stroke-width:2.258;stroke-dasharray:none;stroke-opacity:1"><tspan
           x="6.7167969"
           y="164.55922"
           id="tspan1">Non-Positivist</tspan></text>
      <path
         d="m 13.673496,11.04355 h 5.872662 V 10.278603 H 13.674771 V 8.8923506 c 1.390076,-0.027623 2.469926,-0.42922 3.211074,-1.1975669 1.035652,-1.0743236 1.126171,-2.582117 1.087923,-3.3857358 A 1.025878,1.025878 0 0 0 16.993361,3.3290667 c -0.803193,-0.038253 -2.311412,0.052271 -3.385312,1.0879231 A 3.3534395,3.3534395 0 0 0 13.291446,4.7684395 3.4057108,3.4057108 0 0 0 12.974419,4.4169898 C 11.900095,3.3813377 10.391876,3.290819 9.5891067,3.3290667 A 1.025453,1.025453 0 0 0 8.6087002,4.3090479 c -0.038253,0.8036188 0.052271,2.3114122 1.0879242,3.3857358 0.7415736,0.7687724 1.8218466,1.1703684 3.2131996,1.1975669 V 10.278603 H 7.1081306 v 0.764947 h 5.8004184 v 1.572389 l -3.7074404,1.251962 h -2.092978 v 0.764946 h 1.7734007 v 1.402402 l -1.5405165,1.180992 0.4674677,0.607283 1.4572226,-1.117248 1.3055079,1.002506 v 1.704555 h 0.764946 V 17.330982 L 9.6464781,16.035674 V 14.52618 l 3.6445439,-1.232413 3.644969,1.232413 v 1.509494 l -1.690105,1.295308 v 2.082355 h 0.764945 v -1.704555 l 1.307634,-1.002506 1.457221,1.117248 0.465343,-0.607283 -1.540092,-1.180567 v -1.402401 h 1.845221 V 13.868327 H 17.381359 L 13.673496,12.616364 Z M 9.3727974,4.345595 A 0.26475642,0.26475642 0 0 1 9.6252295,4.0906126 c 0.6799515,-0.031864 1.9510385,0.038679 2.8184015,0.8750137 0.602608,0.5809341 0.924736,1.4521225 0.961708,2.5923177 C 12.814206,6.3255309 11.623014,5.9324337 11.562243,5.9128845 l -0.21801,0.6893014 c 0.01229,0.00388 1.104923,0.3658997 1.513744,1.5243681 C 11.710559,8.092129 10.832569,7.7695797 10.248235,7.1635718 9.411045,6.2962076 9.3404998,5.0255466 9.3727974,4.345595 Z"
         id="path1-2"
         style="stroke-width:0.06614583;fill:#212121;fill-opacity:1;stroke-dasharray:none;stroke:none" />
    </g>
    <text
       xml:space="preserve"
       style="font-style:normal;font-variant:normal;font-weight:500;font-stretch:normal;font-size:8.46667px;line-height:4.23333px;font-family:Montserrat;-inkscape-font-specification:'Montserrat Medium';text-align:center;text-anchor:middle;opacity:1;fill:#eeeeee;fill-opacity:1;fill-rule:nonzero;stroke:none;stroke-width:4.23333;stroke-linecap:butt;stroke-linejoin:round;stroke-miterlimit:4;stroke-dasharray:none;stroke-dashoffset:0;stroke-opacity:1;paint-order:stroke fill markers"
       x="-355.53735"
       y="24.113144"
       id="text4627-36-3"><tspan
         sodipodi:role="line"
         id="tspan4625-0-6"
         x="-355.53735"
         y="24.113144"
         style="font-style:normal;font-variant:normal;font-weight:500;font-stretch:normal;font-size:8.46667px;font-family:Montserrat;-inkscape-font-specification:'Montserrat Medium';text-align:center;text-anchor:middle;fill:#eeeeee;fill-opacity:1;stroke-width:4.23333">ORD</tspan></text>
  </g>
</svg>
