<?xml version="1.0" encoding="UTF-8" standalone="no"?>
<!-- Created with Inkscape (http://www.inkscape.org/) -->

<svg
   width="200"
   height="200"
   viewBox="0 0 52.916668 52.916666"
   version="1.1"
   id="svg8"
   inkscape:version="1.4.2 (f4327f4, 2025-05-13)"
   sodipodi:docname="systemic.svg"
   xmlns:inkscape="http://www.inkscape.org/namespaces/inkscape"
   xmlns:sodipodi="http://sodipodi.sourceforge.net/DTD/sodipodi-0.dtd"
   xmlns="http://www.w3.org/2000/svg"
   xmlns:svg="http://www.w3.org/2000/svg"
   xmlns:rdf="http://www.w3.org/1999/02/22-rdf-syntax-ns#"
   xmlns:cc="http://creativecommons.org/ns#"
   xmlns:dc="http://purl.org/dc/elements/1.1/">
  <defs
     id="defs2">
    <rect
       x="10"
       y="146"
       width="178"
       height="43"
       id="rect5" />
    <rect
       x="9.899495"
       y="144.24978"
       width="181.01934"
       height="46.669048"
       id="rect4" />
    <rect
       x="8.8388348"
       y="143.89623"
       width="182.08"
       height="47.376154"
       id="rect3" />
    <rect
       x="9.899495"
       y="143.89623"
       width="181.01934"
       height="48.083261"
       id="rect2" />
    <rect
       x="10.25"
       y="144"
       width="180.5"
       height="46.25"
       id="rect1" />
    <inkscape:path-effect
       effect="envelope"
       id="path-effect4658"
       is_visible="true"
       yy="true"
       xx="true"
       bendpath1="m -199.08406,108.42369 h 7.0057"
       bendpath2="m -192.07836,108.42369 v 6.75242"
       bendpath3="m -199.08406,115.17611 h 7.0057"
       bendpath4="m -199.08406,108.42369 v 6.75242" />
    <inkscape:path-effect
       effect="bend_path"
       id="path-effect4656"
       is_visible="true"
       bendpath="m -192.00142,114.60623 c 2.12577,-0.53066 4.48261,0.85111 7.0057,0"
       prop_scale="1"
       scale_y_rel="false"
       vertical="false"
       bendpath-nodetypes="cc" />
    <inkscape:path-effect
       effect="bounding_box"
       id="path-effect4654"
       is_visible="true"
       linkedpath=""
       visualbounds="false" />
  </defs>
  <sodipodi:namedview
     id="base"
     pagecolor="#ffffff"
     bordercolor="#666666"
     borderopacity="1.0"
     inkscape:pageopacity="0.0"
     inkscape:pageshadow="2"
     inkscape:zoom="2.8284271"
     inkscape:cx="97.757513"
     inkscape:cy="139.12326"
     inkscape:document-units="px"
     inkscape:current-layer="layer1"
     showgrid="false"
     fit-margin-top="0"
     fit-margin-left="0"
     fit-margin-right="0"
     fit-margin-bottom="0"
     inkscape:window-width="2400"
     inkscape:window-height="1529"
     inkscape:window-x="-8"
     inkscape:window-y="-8"
     inkscape:window-maximized="1"
     showguides="false"
     inkscape:object-nodes="false"
     units="px"
     inkscape:showpageshadow="2"
     inkscape:pagecheckerboard="0"
     inkscape:deskcolor="#d1d1d1" />
  <metadata
     id="metadata5">
    <rdf:RDF>
      <cc:Work
         rdf:about="">
        <dc:format>image/svg+xml</dc:format>
        <dc:type
           rdf:resource="http://purl.org/dc/dcmitype/StillImage" />
      </cc:Work>
    </rdf:RDF>
  </metadata>
  <g
     inkscape:label="Layer 1"
     inkscape:groupmode="layer"
     id="layer1"
     transform="translate(39.608708,-92.411388)">
    <rect
       y="92.411385"
       x="-39.608707"
       height="52.916668"
       width="52.916668"
       id="rect4485"
       style="fill:#222222;fill-opacity:1;fill-rule:nonzero;stroke:none;stroke-width:0.5;stroke-linecap:butt;stroke-linejoin:round;stroke-miterlimit:4;stroke-dasharray:none;stroke-dashoffset:0;stroke-opacity:0.909449;paint-order:normal"
       rx="3.96875"
       ry="3.96875" />
    <rect
       style="fill:#ff2bc2;fill-opacity:1;fill-rule:nonzero;stroke:none;stroke-width:0.5;stroke-linecap:butt;stroke-linejoin:round;stroke-miterlimit:4;stroke-dasharray:none;stroke-dashoffset:0;stroke-opacity:0.909449;paint-order:normal"
       id="rect4487"
       width="47.625"
       height="47.625"
       x="-36.962875"
       y="95.05722"
       rx="2.6458333"
       ry="2.6458333" />
    <path
       style="fill:#222222;fill-opacity:1;fill-rule:nonzero;stroke:none;stroke-width:0.5;stroke-linecap:butt;stroke-linejoin:round;stroke-miterlimit:4;stroke-dasharray:none;stroke-dashoffset:0;stroke-opacity:0.909449;paint-order:normal"
       d="m -38.153499,129.45306 v 8.33438 c 0,3.07816 2.478088,5.55624 5.55625,5.55624 H 6.2965 c 3.078162,0 5.55625,-2.47808 5.55625,-5.55624 v -8.33438 z"
       id="rect5205-3"
       inkscape:connector-curvature="0" />
    <g
       id="g7"
       transform="matrix(0.11578572,0,0,0.11578572,-36.810251,96.762538)" />
    <text
       xml:space="preserve"
       transform="matrix(0.26458333,0,0,0.26458333,-38.418083,93.33743)"
       id="text4"
       style="font-weight:bold;font-size:29.3333px;font-family:'Equity Caps A';-inkscape-font-specification:'Equity Caps A Bold';text-align:start;writing-mode:lr-tb;direction:ltr;white-space:pre;shape-inside:url(#rect5);fill:#ffffff;fill-opacity:1"><tspan
         x="10"
         y="171.49476"
         id="tspan1">SYSTEMIC</tspan></text>
    <g
       id="g1"
       transform="matrix(0.06652107,0,0,0.06652107,-24.781026,96.354582)"
       style="fill:#212121;fill-opacity:1">
	<path
   class="st0"
   d="m 496,293.984 c 9.031,-0.703 16,-8.25 16,-17.297 v -41.375 c 0,-9.063 -6.969,-16.594 -16,-17.313 l -54.828,-4.281 c -3.484,-0.266 -6.484,-2.453 -7.828,-5.688 l -18.031,-43.516 c -1.344,-3.219 -0.781,-6.906 1.5,-9.547 l 35.75,-41.813 c 5.875,-6.891 5.5,-17.141 -0.922,-23.547 l -29.25,-29.25 c -6.406,-6.406 -16.672,-6.813 -23.547,-0.922 l -41.813,35.75 c -2.641,2.266 -6.344,2.844 -9.547,1.516 L 303.953,78.654 c -3.219,-1.328 -5.422,-4.375 -5.703,-7.828 L 293.984,16.013 C 293.281,6.969 285.75,0 276.688,0 h -41.375 c -9.063,0 -16.594,6.969 -17.297,16.016 l -4.281,54.813 c -0.266,3.469 -2.469,6.5 -5.688,7.828 l -43.531,18.047 c -3.219,1.328 -6.906,0.75 -9.563,-1.516 L 113.156,59.438 C 106.281,53.547 96.031,53.954 89.609,60.36 l -29.25,29.25 c -6.406,6.406 -6.797,16.656 -0.922,23.547 l 35.75,41.813 c 2.25,2.641 2.844,6.328 1.5,9.547 l -18.031,43.516 c -1.313,3.234 -4.359,5.422 -7.813,5.688 L 16,218 c -9.031,0.719 -16,8.25 -16,17.313 v 41.359 c 0,9.063 6.969,16.609 16,17.313 l 54.844,4.266 c 3.453,0.281 6.5,2.484 7.813,5.703 l 18.031,43.516 c 1.344,3.219 0.75,6.922 -1.5,9.563 l -35.75,41.813 c -5.875,6.875 -5.484,17.125 0.922,23.547 l 29.25,29.25 c 6.422,6.406 16.672,6.797 23.547,0.906 l 41.797,-35.75 c 2.656,-2.25 6.344,-2.844 9.563,-1.5 l 43.531,18.031 c 3.219,1.344 5.422,4.359 5.688,7.844 l 4.281,54.813 c 0.703,9.031 8.234,16.016 17.297,16.016 h 41.375 c 9.063,0 16.594,-6.984 17.297,-16.016 l 4.266,-54.813 c 0.281,-3.484 2.484,-6.5 5.703,-7.844 l 43.531,-18.031 c 3.203,-1.344 6.922,-0.75 9.547,1.5 l 41.813,35.75 c 6.875,5.891 17.141,5.5 23.547,-0.906 l 29.25,-29.25 c 6.422,-6.422 6.797,-16.672 0.922,-23.547 l -35.75,-41.813 c -2.25,-2.641 -2.844,-6.344 -1.5,-9.563 l 18.031,-43.516 c 1.344,-3.219 4.344,-5.422 7.828,-5.703 z m -240,48.532 c -23.109,0 -44.844,-9 -61.188,-25.328 -16.344,-16.359 -25.344,-38.078 -25.344,-61.203 0,-23.109 9,-44.844 25.344,-61.172 16.344,-16.359 38.078,-25.344 61.188,-25.344 23.125,0 44.844,8.984 61.188,25.344 16.344,16.328 25.344,38.063 25.344,61.172 0,23.125 -9,44.844 -25.344,61.203 -16.344,16.328 -38.063,25.328 -61.188,25.328 z"
   id="path1"
   style="fill:#212121;fill-opacity:1" />

</g>
  </g>
</svg>
